<?xml version="1.0" encoding="utf-8"?>
<svg version="1.1" xmlns:xlink="http://www.w3.org/1999/xlink" width="142px" height="47px" xmlns="http://www.w3.org/2000/svg">
  <defs>
    <mask fill="white" id="clip1734">
      <path d="M 141 0  L 0 0  L 0 46  L 141 46  L 141 0  Z " fill-rule="evenodd" />
    </mask>
  </defs>
  <g transform="matrix(1 0 0 1 -2282 -1459 )">
    <path d="M 141 0  L 0 0  L 0 46  L 141 46  L 141 0  Z " fill-rule="nonzero" fill="#000080" stroke="none" transform="matrix(1 0 0 1 2282 1459 )" />
    <path d="M 141 0  L 0 0  L 0 46  L 141 46  L 141 0  Z " stroke-width="2" stroke="#ffffff" fill="none" transform="matrix(1 0 0 1 2282 1459 )" mask="url(#clip1734)" />
    <path d="M 14.5 0  L 14.5 46  M 126.5 0  L 126.5 46  " stroke-width="1" stroke="#ffffff" fill="none" transform="matrix(1 0 0 1 2282 1459 )" />
  </g>
</svg>