<?xml version="1.0" encoding="utf-8"?>
<svg version="1.1" xmlns:xlink="http://www.w3.org/1999/xlink" width="103px" height="34px" xmlns="http://www.w3.org/2000/svg">
  <defs>
    <mask fill="white" id="clip1735">
      <path d="M 102 0  L 0 0  L 0 33  L 102 33  L 102 0  Z " fill-rule="evenodd" />
    </mask>
  </defs>
  <g transform="matrix(1 0 0 1 -793 -118 )">
    <path d="M 102 0  L 0 0  L 0 33  L 102 33  L 102 0  Z " fill-rule="nonzero" fill="#000080" stroke="none" transform="matrix(1 0 0 1 793 118 )" />
    <path d="M 102 0  L 0 0  L 0 33  L 102 33  L 102 0  Z " stroke-width="2" stroke="#aaaaaa" fill="none" transform="matrix(1 0 0 1 793 118 )" mask="url(#clip1735)" />
    <path d="M 10.5 0  L 10.5 33  M 91.5 0  L 91.5 33  " stroke-width="1" stroke="#aaaaaa" fill="none" transform="matrix(1 0 0 1 793 118 )" />
  </g>
</svg>