<?xml version="1.0" encoding="utf-8"?>
<svg version="1.1" xmlns:xlink="http://www.w3.org/1999/xlink" width="113px" height="103px" xmlns="http://www.w3.org/2000/svg">
  <defs>
    <linearGradient gradientUnits="userSpaceOnUse" x1="56.5" y1="0" x2="56.5" y2="103" id="LinearGradient1578">
      <stop id="Stop1579" stop-color="#ffffff" offset="0" />
      <stop id="Stop1580" stop-color="#f2f2f2" offset="0" />
      <stop id="Stop1581" stop-color="#e4e4e4" offset="1" />
      <stop id="Stop1582" stop-color="#ffffff" offset="1" />
    </linearGradient>
    <mask fill="white" id="clip1583">
      <path d="M 56.5 103  L 0 51.5  L 26.3699758264947 27.463650352841  L 56.5 0  L 113 51.5  L 56.5 103  Z " fill-rule="evenodd" />
    </mask>
  </defs>
  <g transform="matrix(1 0 0 1 -835 -589 )">
    <path d="M 56.5 103  L 0 51.5  L 26.3699758264947 27.463650352841  L 56.5 0  L 113 51.5  L 56.5 103  Z " fill-rule="nonzero" fill="url(#LinearGradient1578)" stroke="none" transform="matrix(1 0 0 1 835 589 )" />
    <path d="M 56.5 103  L 0 51.5  L 26.3699758264947 27.463650352841  L 56.5 0  L 113 51.5  L 56.5 103  Z " stroke-width="2" stroke="#d7d7d7" fill="none" transform="matrix(1 0 0 1 835 589 )" mask="url(#clip1583)" />
  </g>
</svg>