<?xml version="1.0" encoding="utf-8"?>
<svg version="1.1" xmlns:xlink="http://www.w3.org/1999/xlink" width="141px" height="46px" xmlns="http://www.w3.org/2000/svg">
  <defs>
    <mask fill="white" id="clip1607">
      <path d="M 0 41  L 0 5  C 0 2.19999999999999  2.20000000000005 0  5 0  L 70 0  L 136 0  C 138.8 0  141 2.19999999999999  141 5  L 141 41  C 141 43.8  138.8 46  136 46  L 5 46  C 2.20000000000005 46  0 43.8  0 41  Z " fill-rule="evenodd" />
    </mask>
  </defs>
  <g transform="matrix(1 0 0 1 -2094 -633 )">
    <path d="M 0 41  L 0 5  C 0 2.19999999999999  2.20000000000005 0  5 0  L 70 0  L 136 0  C 138.8 0  141 2.19999999999999  141 5  L 141 41  C 141 43.8  138.8 46  136 46  L 5 46  C 2.20000000000005 46  0 43.8  0 41  Z " fill-rule="nonzero" fill="#1890ff" stroke="none" transform="matrix(1 0 0 1 2094 633 )" />
    <path d="M 0 41  L 0 5  C 0 2.19999999999999  2.20000000000005 0  5 0  L 70 0  L 136 0  C 138.8 0  141 2.19999999999999  141 5  L 141 41  C 141 43.8  138.8 46  136 46  L 5 46  C 2.20000000000005 46  0 43.8  0 41  Z " stroke-width="2" stroke="#f2f2f2" fill="none" transform="matrix(1 0 0 1 2094 633 )" mask="url(#clip1607)" />
  </g>
</svg>