<?xml version="1.0" encoding="utf-8"?>
<svg version="1.1" xmlns:xlink="http://www.w3.org/1999/xlink" width="18px" height="18px" preserveAspectRatio="xMinYMid meet" viewBox="1356 1247  18 16" xmlns="http://www.w3.org/2000/svg">
  <defs>
    <mask fill="white" id="clip1648">
      <path d="M 1122.5 1267  L 1157.5 1267  L 1157.5 1297  L 1122.5 1297  Z M 978 1246  L 1375 1246  L 1375 1376  L 978 1376  Z " fill-rule="evenodd" />
    </mask>
  </defs>
  <path d="M 1365 1255.5  L 1361 1255.5  A 5 5 0 0 0 1356.5 1260.5 L 1356.5 1277  A 5 5 0 0 1 1351.5 1282.5 L 1059 1282.5  A 5 5 0 0 0 1054.5 1287.5 L 1054.5 1368  A 5 5 0 0 1 1049.5 1373.5 L 978 1373.5  " stroke-width="1" stroke="#1890ff" fill="none" mask="url(#clip1648)" />
  <path d="M 1359.94644660941 1250.85355339059  L 1364.59289321881 1255.5  L 1359.94644660941 1260.14644660941  L 1360.65355339059 1260.85355339059  L 1365.65355339059 1255.85355339059  L 1366.00710678119 1255.5  L 1365.65355339059 1255.14644660941  L 1360.65355339059 1250.14644660941  L 1359.94644660941 1250.85355339059  Z " fill-rule="nonzero" fill="#1890ff" stroke="none" mask="url(#clip1648)" />
</svg>